<svg xmlns="http://www.w3.org/2000/svg" fill="none" viewBox="0 0 120 120" id="cow"><path d="M38.191 20c-4.691 0-4.18 9.281-5.164 13.725l11.067-2.754C43.356 27.31 42 20 38.19 20Z" fill="#FAA21E"></path><path d="M38.191 20c-4.691 0-4.18 9.281-5.164 13.725l11.067-2.754C43.356 27.31 42 20 38.19 20Z" fill="#fff" fill-opacity=".2"></path><path d="M81.882 20c5.077 0 4.11 9.28 5.077 13.724L76.081 30.97C76.806 27.31 78 20 81.882 20Z" fill="#FAA21E"></path><path d="M81.882 20c5.077 0 4.11 9.28 5.077 13.724L76.081 30.97C76.806 27.31 78 20 81.882 20Z" fill="#fff" fill-opacity=".2"></path><path d="M23.436 30.971c-3.837 0-9.223 1.569-11.436 2.353.738 2.484 3.172 7.843 7.009 9.412 3.836 1.568 9.468 1.438 11.805 1.176-1.476 1.83-5.017 7.451-7.378 15.294-2.361 7.843-3.443 18.17-3.69 22.353-1.106 2.223-3.614 8.706-4.795 16.863-1.18 8.157-1.23 17.778-1.107 21.569h92.961c-.123-4.183-.664-14.353-1.844-21.569-1.181-7.215-3.689-14.248-4.796-16.863-.246-4.706-1.254-15.764-3.32-22.353-2.066-6.588-5.779-12.94-7.378-15.294 2.214-.523 7.378-1.176 9.96-2.745 2.431-1.477 5.042-5.62 5.903-7.843-2.459-.523-8.19-1.569-11.436-1.569-3.246 0-6.271 1.046-7.378 1.569-4.795-1.307-17.043-3.922-27.667-3.922-10.624 0-21.887 2.615-26.191 3.922-1.476-.784-5.386-2.353-9.222-2.353Z" fill="#FAA21E"></path><path d="M23.436 30.971c-3.837 0-9.223 1.569-11.436 2.353.738 2.484 3.172 7.843 7.009 9.412 3.836 1.568 9.468 1.438 11.805 1.176-1.476 1.83-5.017 7.451-7.378 15.294-2.361 7.843-3.443 18.17-3.69 22.353-1.106 2.223-3.614 8.706-4.795 16.863-1.18 8.157-1.23 17.778-1.107 21.569h92.961c-.123-4.183-.664-14.353-1.844-21.569-1.181-7.215-3.689-14.248-4.796-16.863-.246-4.706-1.254-15.764-3.32-22.353-2.066-6.588-5.779-12.94-7.378-15.294 2.214-.523 7.378-1.176 9.96-2.745 2.431-1.477 5.042-5.62 5.903-7.843-2.459-.523-8.19-1.569-11.436-1.569-3.246 0-6.271 1.046-7.378 1.569-4.795-1.307-17.043-3.922-27.667-3.922-10.624 0-21.887 2.615-26.191 3.922-1.476-.784-5.386-2.353-9.222-2.353Z" fill="#fff" fill-opacity=".95"></path><path d="M60.248 92.007C42.425 92.413 35.99 110.838 35 120h50c-.825-9.501-6.93-28.4-24.752-27.993Z" fill="#D0333D"></path><path d="M60.248 92.007C42.425 92.413 35.99 110.838 35 120h50c-.825-9.501-6.93-28.4-24.752-27.993Z" fill="#fff" fill-opacity=".9"></path><path d="M64.002 38.794c-4.427-2.51-5.248-7.081-5.002-9.303 2.5 0 8.764-.265 14.962.676 6.197.941 11.144 1.96 12.865 2.745 2.951-1.176 5.122-2.24 11.436-1.569 3.689.393 7.255 1.177 7.378 1.57-.738 1.96-2.583 6.666-5.165 8.235C97.894 42.715 91.5 43.99 89.5 43.99c.492.523 1.524 1.755 3 4.5 1.381 2.57 3 6.5 3.5 8.5-2.705-1.177-6.59-3.686-9.91-6.04-3.847-2.725-8.316-7.058-9.546-8.627-2.336-.13-8.115-1.02-12.542-3.53Z" fill="#898989"></path><path d="M64.002 38.794c-4.427-2.51-5.248-7.081-5.002-9.303 2.5 0 8.764-.265 14.962.676 6.197.941 11.144 1.96 12.865 2.745 2.951-1.176 5.122-2.24 11.436-1.569 3.689.393 7.255 1.177 7.378 1.57-.738 1.96-2.583 6.666-5.165 8.235C97.894 42.715 91.5 43.99 89.5 43.99c.492.523 1.524 1.755 3 4.5 1.381 2.57 3 6.5 3.5 8.5-2.705-1.177-6.59-3.686-9.91-6.04-3.847-2.725-8.316-7.058-9.546-8.627-2.336-.13-8.115-1.02-12.542-3.53Z" fill="#fff" fill-opacity=".2"></path><path d="M59.587 55.285c-9.96 0-19.182 5.098-19.182 13.725 0 8.628 12.542 11.765 19.92 11.765 9.222 0 18.445-4.706 18.445-11.765s-9.223-13.725-19.183-13.725Z" fill="#CE4317"></path><path d="M59.587 55.285c-9.96 0-19.182 5.098-19.182 13.725 0 8.628 12.542 11.765 19.92 11.765 9.222 0 18.445-4.706 18.445-11.765s-9.223-13.725-19.183-13.725Z" fill="#fff" fill-opacity=".8"></path><ellipse cx="41.143" cy="52.54" rx="3.32" ry="3.529" fill="#898989"></ellipse><ellipse cx="41.143" cy="52.54" rx="3.32" ry="3.529" fill="#000" fill-opacity=".8"></ellipse><ellipse cx="78.032" cy="52.54" rx="3.32" ry="3.529" fill="#898989"></ellipse><ellipse cx="78.032" cy="52.54" rx="3.32" ry="3.529" fill="#000" fill-opacity=".8"></ellipse><ellipse cx="64.751" cy="60.775" rx="1.476" ry="1.569" fill="#898989"></ellipse><ellipse cx="64.751" cy="60.775" rx="1.476" ry="1.569" fill="#000" fill-opacity=".8"></ellipse><ellipse cx="54.423" cy="60.775" rx="1.476" ry="1.569" fill="#898989"></ellipse><ellipse cx="54.423" cy="60.775" rx="1.476" ry="1.569" fill="#000" fill-opacity=".8"></ellipse><path stroke="#898989" stroke-width="2" stroke-linecap="round" d="M58 70.991h4"></path><path stroke="#000" stroke-opacity=".6" stroke-width="2" stroke-linecap="round" d="M58 70.991h4"></path><path d="M32.658 88.618c2.213 1.96 4.795 5.098 6.64 8.627 1.979 3.787 2.582 9.804-4.058 9.804-5.312 0-9.1-4.967-10.329-7.45" stroke="#898989" stroke-width="2" stroke-linecap="round"></path><path d="M32.658 88.618c2.213 1.96 4.795 5.098 6.64 8.627 1.979 3.787 2.582 9.804-4.058 9.804-5.312 0-9.1-4.967-10.329-7.45" stroke="#fff" stroke-opacity=".4" stroke-width="2" stroke-linecap="round"></path><path d="M87.005 88.226c-2.284 1.96-4.95 5.098-6.853 8.628-2.042 3.786-2.665 9.804 4.188 9.804 5.483 0 9.392-4.968 10.66-7.451" stroke="#898989" stroke-width="2" stroke-linecap="round"></path><path d="M87.005 88.226c-2.284 1.96-4.95 5.098-6.853 8.628-2.042 3.786-2.665 9.804 4.188 9.804 5.483 0 9.392-4.968 10.66-7.451" stroke="#fff" stroke-opacity=".4" stroke-width="2" stroke-linecap="round"></path><path d="M27.067 70.56c-.738-4.313-3.074-6.797-4.427-7.45-.492 1.568-1.404 6.447-1.844 10.195-.37 3.138-.615 6.667-.738 7.844-.246.522-1.23 2.745-2.213 5.882-.984 3.137-1.476 5.098-1.845 7.059 3.566-.13 9.591 0 11.805-7.059 1.844-5.882 0-9.02-1.107-10.196.369-.784.832-3.568.369-6.275Z" fill="#898989"></path><path d="M27.067 70.56c-.738-4.313-3.074-6.797-4.427-7.45-.492 1.568-1.404 6.447-1.844 10.195-.37 3.138-.615 6.667-.738 7.844-.246.522-1.23 2.745-2.213 5.882-.984 3.137-1.476 5.098-1.845 7.059 3.566-.13 9.591 0 11.805-7.059 1.844-5.882 0-9.02-1.107-10.196.369-.784.832-3.568.369-6.275Z" fill="#fff" fill-opacity=".2"></path><path d="M98.632 99.187c0-5.96 2.951-9.28 4.426-10.196.615 1.83 2.066 6.902 2.952 12.549.885 5.647.86 11.242.737 13.334-2.705-2.745-8.115-9.726-8.115-15.687Z" fill="#898989"></path><path d="M98.632 99.187c0-5.96 2.951-9.28 4.426-10.196.615 1.83 2.066 6.902 2.952 12.549.885 5.647.86 11.242.737 13.334-2.705-2.745-8.115-9.726-8.115-15.687Z" fill="#fff" fill-opacity=".2"></path><path d="m40 96.49-9 10.481 7.747 6.667 8.484-9.804L40 96.491Z" fill="#898989"></path><path d="m40 96.49-9 10.481 7.747 6.667 8.484-9.804L40 96.491Z" fill="#fff" fill-opacity=".2"></path><path d="M90.147 105.854 79.818 95.658l-6.271 8.235 9.222 9.02 7.378-7.059Z" fill="#898989"></path><path d="M90.147 105.854 79.818 95.658l-6.271 8.235 9.222 9.02 7.378-7.059Z" fill="#fff" fill-opacity=".2"></path></svg>
